{
	"asset":{
		"generator":"Khronos glTF Blender I/O v4.0.44",
		"version":"2.0"
	},
	"scene":0,
	"scenes":[
		{
			"name":"Scene",
			"nodes":[
				0
			]
		}
	],
	"nodes":[
		{
			"mesh":0,
			"name":"Icosphere",
			"scale":[
				2.1240856647491455,
				2.1240856647491455,
				2.9067533016204834
			],
			"translation":[
				0,
				-0.5928768515586853,
				0
			]
		}
	],
	"meshes":[
		{
			"name":"Icosphere",
			"primitives":[
				{
					"attributes":{
						"POSITION":0,
						"NORMAL":1
					},
					"indices":2
				}
			]
		}
	],
	"accessors":[
		{
			"bufferView":0,
			"componentType":5126,
			"count":47178,
			"max":[
				2.0200443267822266,
				1.627579689025879,
				1.0981402397155762
			],
			"min":[
				-0.8541617393493652,
				-0.8946810960769653,
				-0.8300334215164185
			],
			"type":"VEC3"
		},
		{
			"bufferView":1,
			"componentType":5126,
			"count":47178,
			"type":"VEC3"
		},
		{
			"bufferView":2,
			"componentType":5123,
			"count":280104,
			"type":"SCALAR"
		}
	],
	"bufferViews":[
		{
			"buffer":0,
			"byteLength":566136,
			"byteOffset":0,
			"target":34962
		},
		{
			"buffer":0,
			"byteLength":566136,
			"byteOffset":566136,
			"target":34962
		},
		{
			"buffer":0,
			"byteLength":560208,
			"byteOffset":1132272,
			"target":34963
		}
	],
	"buffers":[
		{
			"byteLength":1692480,
			"uri":"stone.bin"
		}
	]
}
