{
	"asset":{
		"generator":"Khronos glTF Blender I/O v4.0.44",
		"version":"2.0"
	},
	"scene":0,
	"scenes":[
		{
			"name":"Scene",
			"nodes":[
				0
			]
		}
	],
	"nodes":[
		{
			"mesh":0,
			"name":"Cylinder",
			"scale":[
				0.8889948129653931,
				0.8889948129653931,
				0.8889948129653931
			],
			"translation":[
				0,
				0.9382362365722656,
				0
			]
		}
	],
	"meshes":[
		{
			"name":"Cylinder",
			"primitives":[
				{
					"attributes":{
						"POSITION":0,
						"NORMAL":1,
						"TEXCOORD_0":2
					},
					"indices":3
				}
			]
		}
	],
	"accessors":[
		{
			"bufferView":0,
			"componentType":5126,
			"count":53772,
			"max":[
				2.7172985076904297,
				6.943364143371582,
				5.4102067947387695
			],
			"min":[
				-1.1098488569259644,
				-2.1775307655334473,
				-5.410206317901611
			],
			"type":"VEC3"
		},
		{
			"bufferView":1,
			"componentType":5126,
			"count":53772,
			"type":"VEC3"
		},
		{
			"bufferView":2,
			"componentType":5126,
			"count":53772,
			"type":"VEC2"
		},
		{
			"bufferView":3,
			"componentType":5123,
			"count":102528,
			"type":"SCALAR"
		}
	],
	"bufferViews":[
		{
			"buffer":0,
			"byteLength":645264,
			"byteOffset":0,
			"target":34962
		},
		{
			"buffer":0,
			"byteLength":645264,
			"byteOffset":645264,
			"target":34962
		},
		{
			"buffer":0,
			"byteLength":430176,
			"byteOffset":1290528,
			"target":34962
		},
		{
			"buffer":0,
			"byteLength":205056,
			"byteOffset":1720704,
			"target":34963
		}
	],
	"buffers":[
		{
			"byteLength":1925760,
			"uri":"amazing.bin"
		}
	]
}
